<svg id="Capa_1" data-name="Capa 1" xmlns="http://www.w3.org/2000/svg" xmlns:xlink="http://www.w3.org/1999/xlink" viewBox="0 0 1200 1200"><defs><style>.cls-1{fill:url(#Rosa_fuerte_verano);}.cls-2{fill:url(#Rosa_fuerte_verano-2);}.cls-3{fill:url(#Rosa_fuerte_verano-3);}.cls-4{fill:url(#Rosa_fuerte_verano-4);}.cls-5{fill:url(#Rosa_fuerte_verano-5);}.cls-6{fill:url(#Rosa_fuerte_verano-6);}.cls-7{fill:url(#Rosa_fuerte_verano-7);}.cls-8{fill:url(#Rosa_fuerte_verano-8);}.cls-9{fill:url(#Rosa_fuerte_verano-9);}.cls-10{fill:url(#Rosa_fuerte_verano-10);}.cls-11{fill:url(#Rosa_fuerte_verano-11);}.cls-12{fill:url(#Rosa_fuerte_verano-12);}.cls-13{fill:url(#Rosa_fuerte_verano-13);}.cls-14{fill:url(#Rosa_fuerte_verano-14);}.cls-15{fill:url(#Rosa_fuerte_verano-15);}.cls-16{fill:url(#Rosa_fuerte_verano-16);}.cls-17{fill:url(#Rosa_fuerte_verano-17);}.cls-18{fill:url(#Rosa_fuerte_verano-18);}.cls-19{fill:url(#Rosa_fuerte_verano-19);}.cls-20{fill:url(#Rosa_fuerte_verano-20);}.cls-21{fill:url(#Rosa_fuerte_verano-21);}.cls-22{fill:#9e005d;}.cls-23{fill:#bf027c;}</style><linearGradient id="Rosa_fuerte_verano" x1="599.5" y1="587.41" x2="646.17" y2="634.08" gradientUnits="userSpaceOnUse"><stop offset="0" stop-color="#d47db2"/><stop offset="0.04" stop-color="#d378af"/><stop offset="0.5" stop-color="#c64191"/><stop offset="0.77" stop-color="#c12187"/><stop offset="1" stop-color="#be097f"/></linearGradient><linearGradient id="Rosa_fuerte_verano-2" x1="758.3" y1="269.46" x2="758.3" y2="463.77" xlink:href="#Rosa_fuerte_verano"/><linearGradient id="Rosa_fuerte_verano-3" x1="774.68" y1="269.46" x2="774.68" y2="463.77" xlink:href="#Rosa_fuerte_verano"/><linearGradient id="Rosa_fuerte_verano-4" x1="744.52" y1="269.46" x2="744.52" y2="463.77" xlink:href="#Rosa_fuerte_verano"/><linearGradient id="Rosa_fuerte_verano-5" x1="349.71" y1="153.34" x2="717.44" y2="644.2" xlink:href="#Rosa_fuerte_verano"/><linearGradient id="Rosa_fuerte_verano-6" x1="595.28" y1="276.44" x2="595.35" y2="276.55" xlink:href="#Rosa_fuerte_verano"/><linearGradient id="Rosa_fuerte_verano-7" x1="593.7" y1="90.44" x2="575.6" y2="773.42" xlink:href="#Rosa_fuerte_verano"/><linearGradient id="Rosa_fuerte_verano-8" x1="424.36" y1="132.85" x2="779.14" y2="606.43" xlink:href="#Rosa_fuerte_verano"/><linearGradient id="Rosa_fuerte_verano-9" x1="425.53" y1="130.7" x2="781.1" y2="605.33" xlink:href="#Rosa_fuerte_verano"/><linearGradient id="Rosa_fuerte_verano-10" x1="535.12" y1="310.54" x2="537.88" y2="310.54" xlink:href="#Rosa_fuerte_verano"/><linearGradient id="Rosa_fuerte_verano-11" x1="608.66" y1="199.47" x2="608.66" y2="592.85" xlink:href="#Rosa_fuerte_verano"/><linearGradient id="Rosa_fuerte_verano-12" x1="736.27" y1="270.82" x2="737.18" y2="272.03" xlink:href="#Rosa_fuerte_verano"/><linearGradient id="Rosa_fuerte_verano-13" x1="551.92" y1="72.75" x2="819.95" y2="430.53" xlink:href="#Rosa_fuerte_verano"/><linearGradient id="Rosa_fuerte_verano-14" x1="482.49" y1="-10.08" x2="861.17" y2="495.39" xlink:href="#Rosa_fuerte_verano"/><linearGradient id="Rosa_fuerte_verano-15" x1="530.59" y1="83.54" x2="862.35" y2="526.39" xlink:href="#Rosa_fuerte_verano"/><linearGradient id="Rosa_fuerte_verano-16" x1="572.98" y1="80.04" x2="554.31" y2="784.8" xlink:href="#Rosa_fuerte_verano"/><linearGradient id="Rosa_fuerte_verano-17" x1="570.73" y1="63.12" x2="570.73" y2="343.08" xlink:href="#Rosa_fuerte_verano"/><linearGradient id="Rosa_fuerte_verano-18" x1="398.91" y1="246.72" x2="508.31" y2="875.81" xlink:href="#Rosa_fuerte_verano"/><linearGradient id="Rosa_fuerte_verano-19" x1="-37.12" y1="-26.38" x2="671.32" y2="919.27" xlink:href="#Rosa_fuerte_verano"/><linearGradient id="Rosa_fuerte_verano-20" x1="533.25" y1="488.32" x2="643.99" y2="636.15" xlink:href="#Rosa_fuerte_verano"/><linearGradient id="Rosa_fuerte_verano-21" x1="603.48" y1="399.39" x2="734.95" y2="532.27" xlink:href="#Rosa_fuerte_verano"/></defs><path class="cls-1" d="M660.81,617.76a63.78,63.78,0,0,1-14.28,13.71c-7.63,5.31-13.42,3.42-16.27,3.57-2.85-.15-8.64,1.74-16.27-3.57a62.68,62.68,0,0,1-14.23-13.66l0,0c5.89.39,16.65-8.93,23.5-8.93,5.31,0,7,3.81,7,3.81s1.74-3.81,7-3.81C644.16,608.83,654.92,618.15,660.81,617.76Z"/><path class="cls-2" d="M759.28,425.32c-.82-5.89-1.88-11.49-3.14-16.75v-.05c-1.11-4.59-2.36-9-3.71-13,7-17.72,20.22-65.79-10-124.34a1.71,1.71,0,0,1,.25.29c.09.1.19.24.33.43C749.53,279.74,798.09,343.41,759.28,425.32Z"/><path class="cls-3" d="M758.27,476.09c.82-3.57,1.88-13.75,2.26-19.25v0c.1-.78.1-1.45.15-2q.29-6.81,0-13.18c33.4-62.5,16.75-112.46,12.6-123,.09.19.24.48.43.82C820.39,405.53,758.27,476.09,758.27,476.09Z"/><path class="cls-4" d="M747.21,381.39c-2.22-5.26-4.44-9.8-6.42-13.56-1.83-3.48-3.47-6.28-4.73-8.3,15.45-39.2,2.37-82.83.78-87.95,0,0,0,0,0,0a.42.42,0,0,1,.14.29C760,314.2,753.15,358.85,747.21,381.39Z"/><path class="cls-5" d="M534.48,610.33c3,4.29,6.37,8.36,9.69,12.41s6.77,8,10.34,11.8,7.2,7.56,11,11.05c1.93,1.75,3.73,3.63,5.73,5.28l5.88,5.08,6.11,4.76c2,1.65,4.21,3,6.28,4.49a71.12,71.12,0,0,0,6.43,4.22c2.2,1.3,4.36,2.68,6.59,3.91l6.84,3.39a75,75,0,0,0,7,2.93,50.91,50.91,0,0,0,7.11,2.51l7.24,2-2.38.09a97.55,97.55,0,0,0,13.45-6.47c2.25-1.16,4.37-2.6,6.55-3.92a75,75,0,0,0,6.39-4.22l6.24-4.46,5.93-4.9A150.45,150.45,0,0,0,678.3,650c3.87-3.4,7.07-7.45,10.59-11.2s6.54-7.94,9.72-12c1.55-2,3.17-4.06,4.68-6.15l4.21-6.5c2.74-4.37,5.92-8.48,8.21-13.14l7.42-13.65c2.3-4.64,4.32-9.44,6.49-14.15a127.62,127.62,0,0,0,6-14.43L740.93,544c2-4.85,3-10,4.51-15l4.43-15.11c2.25-10.24,4.34-20.55,6.79-30.85-1,10.49-2.16,21-3.46,31.53l-3,15.61-1.6,7.81a64.25,64.25,0,0,1-1.9,7.74l-4.5,15.32a133,133,0,0,1-5.36,15.07c-2,4.94-3.77,10-6,14.86l-7.25,14.35c-2.23,4.88-5.4,9.26-8.12,13.89l-4.27,6.84c-1.54,2.2-3.21,4.32-4.81,6.48-3.28,4.27-6.32,8.74-10.05,12.65s-7,8.25-11,11.85a154.75,154.75,0,0,1-12.07,10.82l-6.31,5.1-6.66,4.67a81.34,81.34,0,0,1-6.84,4.41c-2.32,1.41-4.62,2.86-7.08,4a104.47,104.47,0,0,1-15.24,6.72l-1.27.44-1.12-.35-7.86-2.45a58.32,58.32,0,0,1-7.64-3,67.42,67.42,0,0,1-7.39-3.49l-7.1-4c-2.3-1.42-4.5-3-6.75-4.46a78.21,78.21,0,0,1-6.52-4.76c-2.09-1.67-4.3-3.21-6.24-5.06l-6-5.34c-3.79-3.76-7.64-7.44-11.14-11.45s-6.89-8.08-10.14-12.26-6.35-8.47-9.28-12.85A155.51,155.51,0,0,1,534.48,610.33Z"/><path class="cls-6" d="M595.41,276.36a.15.15,0,0,0,.1-.05,1,1,0,0,1-.44.29Z"/><path class="cls-7" d="M762.08,241.13c-7,19.59-37.07,13.08-37.07,13.08l0-.05c4.15,41-1.69,94-44.94,134.38-67.47,63-121.87,95.32-138.77,126.7-16.41,30.46-9.55,65-9.17,67-2.36-3-52.85-68.54-24.66-135.73-1.69,2.37-38.61,56.91-7.58,121.78,31.76,66.37,107.78,149.63,45,241.34,0-.1,0-.14,0-.24.68-4.3,9.71-66.61-48.6-144.56-50.15-67-115.27-139.59-73.61-240.13C465.43,321.49,667.09,296.64,709.9,191a.46.46,0,0,1,.15,0C713.52,191.85,774.44,206.28,762.08,241.13Z"/><path class="cls-8" d="M718.93,502.93s-42.38,16.17-59.56-16.7a3.35,3.35,0,0,1-.44-.77s0,0,0-.1l0,.05c1.06,1.06,10.28,9.56,32.15,9.17,8-.14,17-3.19,27.8-9.22a39.54,39.54,0,0,1-8.16,11.3C712.32,498.73,715.55,502.3,718.93,502.93Z"/><path class="cls-9" d="M658.82,482.84a63.19,63.19,0,0,0,9.31,2.78,83.86,83.86,0,0,0,9.67,1.7,75.65,75.65,0,0,0,11.16.49c1.9.07,3.79-.24,5.66-.33s3.68-.49,5.45-.72,3.45-.72,5.07-1,3.1-.82,4.51-1.17,2.71-.66,3.81-1.1l2.91-1c1.62-.55,2.58-.82,2.58-.82s-.81.55-2.28,1.46L714,484.71a28.7,28.7,0,0,1-3.64,1.81,32.5,32.5,0,0,1-4.47,1.81c-1.64.5-3.34,1.17-5.18,1.55S697,490.76,695,491s-4,.51-6,.47a55.43,55.43,0,0,1-11.73-1,50.33,50.33,0,0,1-9.82-2.87A37.85,37.85,0,0,1,658.82,482.84Z"/><path class="cls-10" d="M537.88,309.76c-.82.49-1.69,1-2.51,1.45l-.25.1C536,310.83,537,310.29,537.88,309.76Z"/><path class="cls-11" d="M762.08,241.13c-7,19.59-37.07,13.08-37.07,13.08l0-.05c4.15,41-1.69,94-44.94,134.38-67.47,63-121.87,95.32-138.77,126.7-16.41,30.46-9.55,65-9.17,67-2.36-3-52.85-68.54-24.66-135.73-1.69,2.37-38.61,56.91-7.58,121.78,31.76,66.37,107.78,149.63,45,241.34,0-.1,0-.14,0-.24,38.13-133.56-81.81-194.9-90.84-287S563.31,370.2,563.31,370.2c-34.41,41-28.19,86.3-28.19,86.3,17.09-33.79,88.53-77.81,129.56-115.84s34.7-103.78,34.7-103.78,21.38,6.66,36.68-9.65c14.82-15.79-23.6-34.95-26-36.16C713.52,191.85,774.44,206.28,762.08,241.13Z"/><path class="cls-12" d="M736.84,271.54a.42.42,0,0,1,.14.29c-.05-.1-.05-.2-.14-.25S736.88,271.54,736.84,271.54Z"/><path class="cls-13" d="M747.21,381.39c-2.22-5.26-4.44-9.8-6.42-13.56,15.74-51.16-1.44-90.89-3.81-96C760,314.2,753.15,358.85,747.21,381.39Z"/><path class="cls-14" d="M759.28,425.32c-.82-5.89-1.88-11.49-3.14-16.75v-.05c29-75.2-7.86-129.45-13.13-136.65C749.53,279.74,798.09,343.41,759.28,425.32Z"/><path class="cls-15" d="M758.27,476.09c.82-3.57,1.88-13.75,2.26-19.25v0c33.24-48.76,28.05-97.12,19.55-121.69a147.77,147.77,0,0,0-6.37-15.68C820.39,405.53,758.27,476.09,758.27,476.09Z"/><path class="cls-16" d="M703.05,179.78s-6.42,36.78-60.72,73.08c-36.2,24.23-115.07,65.11-152.43,87.6-42.33,25.44-57.54,53.87-57.54,53.87s-9-49.43,15.69-100.74c47.83-99.14,142.2-107.73,142.2-107.73s41-6.52,75.92-1.74c0,0,20.71-12.93,15.16-45-6.42-37.36-67.19-51-94.08-9.9C600.33,82,660,82.86,686.78,103.81c10.33,8.11,15.3,20.51,17.38,33C707.83,158.2,703.05,179.78,703.05,179.78Z"/><path class="cls-17" d="M693.67,110.79c-.19-.22-1.5-1.78-2-2.31a38.7,38.7,0,0,0-4.89-4.67C660,82.86,600.33,82,587.25,129.24c.82-2,15.45-35,60.92-31.32,0,0,28.6,1.2,40.31,23.72,9.66,18.55,7.47,33.47,7.16,36-3.32,19.21-14,41.71-40,64.35C613,259.08,434.78,331,432.36,394.33c0,0,15.21-28.43,57.54-53.87,37.36-22.49,116.23-63.37,152.43-87.6,54.3-36.3,63.21-73.45,63.21-73.45S719,138.53,693.67,110.79Z"/><path class="cls-18" d="M530.93,750.54S467,691,437.19,643.25C402.73,588,409.44,531.7,409.44,531.7S416.1,572,453.6,625.43,524.41,710.63,530.93,750.54Z"/><path class="cls-19" d="M530.93,750.54S467,691,437.19,643.25C402.73,588,409.44,531.7,409.44,531.7s.58,45.47,28.38,88.91S526.87,734.13,530.93,750.54Z"/><path class="cls-20" d="M646.86,622.06a122.82,122.82,0,0,1-16.6,0,122.78,122.78,0,0,1-16.6,0c-8.93-.63-13.37-3.87-13.9-4.25A62.68,62.68,0,0,0,614,631.47c7.63,5.31,13.42,3.42,16.27,3.57,2.85-.15,8.64,1.74,16.27-3.57a63.1,63.1,0,0,0,14.24-13.66C660.23,618.19,655.79,621.43,646.86,622.06Z"/><path class="cls-21" d="M718.88,485.36a39.54,39.54,0,0,1-8.16,11.3c-31.69,10.25-48.8-6.62-51.35-10.43a3.35,3.35,0,0,1-.44-.77s0,0,0,0c1.06,1.06,10.28,9.56,32.15,9.17C699.09,494.44,708.12,491.39,718.88,485.36Z"/><path class="cls-22" d="M223.08,821.2l1.7,10.11q2.39,13.83,4.7,24.19t11.88,48q.91-4.76,3.66-21.08,3.53-21.25,4.69-26.7,3.4-16,6.58-23.49t7.07-10.8a13.34,13.34,0,0,1,8.83-3.29,8.11,8.11,0,0,1,6.07,2.16,7.18,7.18,0,0,1,2.1,5.19,6.57,6.57,0,0,1-1.13,3.8,3.22,3.22,0,0,1-2.65,1.64A5.26,5.26,0,0,1,274,830c-2-1.16-3.25-1.82-3.66-2a7.85,7.85,0,0,0-2.37-.35,6.24,6.24,0,0,0-5.12,2.85q-3.78,5-8.32,25.14T243,920l-2.08,12.87q-6.94-21.67-9.38-30.75-3.28-12.18-7.49-30.75l-6.7-29.89q-1.22,10.37-5.7,34.94t-5.33,28.29q-2.81,11.67-6,17.88t-7,9.07a13.67,13.67,0,0,1-8.38,2.85,12.72,12.72,0,0,1-9.38-3.62,9,9,0,0,1-2.81-6.83,5.38,5.38,0,0,1,1-3.24,3,3,0,0,1,2.5-1.42q1.89,0,4.08,2.85,3.9,5.1,7.13,5.09c2.32,0,4.59-1.46,6.83-4.4q5-6.74,9.62-28.25,5.61-26,10.79-66a37.41,37.41,0,0,0-8.17,1.73,29.42,29.42,0,0,0-10.08,4.88,20.29,20.29,0,0,0-6.22,8.21,26.59,26.59,0,0,0-2.16,10.58,29.29,29.29,0,0,0,.55,5.61,22.47,22.47,0,0,0,1.58,4.67,13.37,13.37,0,0,1,1.4,4.84,5.87,5.87,0,0,1-1.06,3.54,3.18,3.18,0,0,1-2.65,1.47q-2.32,0-4-3.42t-1.65-10.41q0-11.56,4.11-19.69a29.39,29.39,0,0,1,11-12.27q4.4-2.6,16.94-5A62.72,62.72,0,0,0,223.08,821.2Z"/><path class="cls-22" d="M295.53,852.56q6,0,9.93,6.74t4,18.75a63.68,63.68,0,0,1-9.5,34.42q-9.51,15.25-20.11,15.25-6.53,0-10.51-6.05t-4-16.5a77,77,0,0,1,7.31-33.52Q281.82,852.57,295.53,852.56ZM290.35,859q-5.18,0-10,10.5t-4.85,29q0,11.24,3,17.71,2.19,4.75,5.85,4.75,5.12,0,9.32-9Q299,900.33,299,883.06q0-13-2.46-18.49T290.35,859Z"/><path class="cls-22" d="M326.49,925.21h-9.08L321.67,902q3.1-17.12,5.43-32.49c.36-2.53.54-4.11.54-4.75,0-1.38-.44-2.07-1.34-2.07-.61,0-1.54.59-2.8,1.77a70.75,70.75,0,0,0-6.82,8.77l-1.89-3q5.85-8.91,11.66-13.35t8.93-4.45a2.19,2.19,0,0,1,1.73.73,2.71,2.71,0,0,1,.64,1.86,55.75,55.75,0,0,1-.8,6l-2.65,15.54a110.51,110.51,0,0,1,13.92-23.58c2.48-3.12,4.56-4.69,6.23-4.69a3.66,3.66,0,0,1,3.05,1.69,7.1,7.1,0,0,1,0,7.9c-.8,1.1-2.78,2.39-5.94,3.89a24.2,24.2,0,0,0-7.34,5.19,45.52,45.52,0,0,0-6.21,9.24A56.25,56.25,0,0,0,333.33,887q-1.35,4.61-4.09,21.46Z"/><path class="cls-22" d="M354.58,872.6l-2.68-2.93q6.08-9.51,11.1-13.52t8.56-4a3.7,3.7,0,0,1,3,1.21,4.88,4.88,0,0,1,1,3.28q0,2.5-3.95,21.25-6.44,30.68-6.44,37a4.32,4.32,0,0,0,.43,2c.28.55.59.82.91.82q2,0,10-10.71l2.37,3.28q-8.34,11.15-12.18,14.25c-2.56,2.08-4.66,3.11-6.28,3.11a3.85,3.85,0,0,1-3.38-1.9,9.44,9.44,0,0,1-1.25-5.27q0-10.8,9.14-52.78a17.26,17.26,0,0,0,.42-3.54c0-1.15-.36-1.73-1.09-1.73a4.42,4.42,0,0,0-2.77,1.38Q359.94,865.17,354.58,872.6Zm23.95-57.18a3.63,3.63,0,0,1,3.1,1.77,7.76,7.76,0,0,1,1.22,4.53,12.11,12.11,0,0,1-1.86,6.7q-1.86,2.9-4.17,2.89a3.59,3.59,0,0,1-3.05-1.81,8.41,8.41,0,0,1-1.21-4.75,11.83,11.83,0,0,1,1.76-6.61C375.5,816.32,376.9,815.42,378.53,815.42Z"/><path class="cls-22" d="M414.48,903.53l2,3.8q-14.92,20.13-25.59,20.13a7.18,7.18,0,0,1-6.61-4.15Q382,919.17,382,910a92,92,0,0,1,7.92-36.8q8.9-20.82,21.27-20.82a7.73,7.73,0,0,1,6.61,3.07c1.52,2,2.29,4.85,2.29,8.42a24.35,24.35,0,0,1-2.75,11.06q-2.73,5.44-9.81,11.31-3.52,2.85-15.11,10.28a75.44,75.44,0,0,0-.55,8.9q0,6.14,1.37,8.55a4.35,4.35,0,0,0,4,2.42,10.14,10.14,0,0,0,5.49-2Q406.74,911.74,414.48,903.53ZM393.15,891q9.81-6.22,14.75-13.39a17.86,17.86,0,0,0,3.35-9.94,11.16,11.16,0,0,0-1.37-5.92,4.09,4.09,0,0,0-3.57-2.2q-2.25,0-4.38,2.42-2.87,3.19-4.82,9.67A116,116,0,0,0,393.15,891Z"/><path class="cls-22" d="M466,852l4.89-1.56q-4.42,20.21-8.14,40.52-2.67,14.51-3.7,24.19a122.56,122.56,0,0,0-.61,12.26q-.12,12.45-1.95,20a33.36,33.36,0,0,1-9.54,17.1A23.5,23.5,0,0,1,430.39,971q-8.24,0-12.95-5.49A18.68,18.68,0,0,1,412.71,953a24.09,24.09,0,0,1,3.79-13.05q2.81-4.57,11.73-11.06,4.51-3.36,8.49-6.91-4.53,3.29-7,3.28-2.26,0-4-3a15.57,15.57,0,0,1-1.75-7.9,80,80,0,0,1,6.68-31.57q6.67-15.69,16.06-23.55,5.79-4.83,14.51-4.83c1.14,0,2.54,0,4.21.17Zm-15.07,59.86q-4.16,5.28-16,16.85-10.44,10-12.82,14.43a20,20,0,0,0-2.38,9.5,14,14,0,0,0,3.08,8.85,9.23,9.23,0,0,0,7.48,3.93,13.37,13.37,0,0,0,8.06-2.89,24.22,24.22,0,0,0,6.81-8.38,39.7,39.7,0,0,0,4-12.4,126.06,126.06,0,0,0,1.16-18.31Q450.37,920.9,450.92,911.82Zm8.26-47.08A20.75,20.75,0,0,0,454,864a13.27,13.27,0,0,0-9.93,4.32q-4.14,4.32-7.06,14.51-4.08,14.43-4.08,24.27a13.31,13.31,0,0,0,1.62,6.83q1.6,2.76,3.62,2.76,2.43,0,6-3.32a25.67,25.67,0,0,0,5.88-8.34q2.28-5,4.66-17.28Z"/><path class="cls-22" d="M516.43,851.09l4-1.2-4.57,21.85q-2.75,13.05-5.18,30.06a109.4,109.4,0,0,0-1.34,11.93c0,1.78.51,2.67,1.52,2.67.65,0,1.69-.6,3.11-1.81a45.55,45.55,0,0,0,7.25-8l2,3.37q-6.95,9-8.9,10.89a32,32,0,0,1-7.43,5.61,9.7,9.7,0,0,1-4.51,1.21,2.81,2.81,0,0,1-2.38-1,5,5,0,0,1-.79-3,17.49,17.49,0,0,1,.49-3.54l2.44-11.75a62.45,62.45,0,0,1-12.5,15.29q-4.44,4-8.16,4a5.88,5.88,0,0,1-5.42-3.54q-2.56-4.76-2.56-12.44a70.08,70.08,0,0,1,3.44-20.39,83.78,83.78,0,0,1,9.23-20.38q5.79-9.17,12.19-13.48,4.94-3.28,12.67-3.28a23.37,23.37,0,0,1,4,.34Zm-7.56,13.22a20.75,20.75,0,0,0-5.55-.95,12.82,12.82,0,0,0-9.56,4.28q-4.08,4.27-7.59,15.37a73.2,73.2,0,0,0-3.5,22.16c0,3.92.46,6.74,1.4,8.47s2.15,2.59,3.65,2.59q4.21,0,9-6.44t7.07-18.53Z"/><path class="cls-22" d="M583.21,842.46l.73-4.24a66.49,66.49,0,0,0,15-3.46q-2.15,8.91-3.11,14.36l-3.28,19.29q10.77,0,16.22-7.65a30.57,30.57,0,0,0,5.45-18.2q0-7.35-3.93-11.85t-11.73-4.5q-11,0-21,7.44A50,50,0,0,0,562,853.07a56.36,56.36,0,0,0-5.58,24,27.16,27.16,0,0,0,.64,6.09,21.52,21.52,0,0,0,1.86,5.15,17.74,17.74,0,0,0,3.23,3.8,19.71,19.71,0,0,1,3.47,4.11,7,7,0,0,1,.67,3.16,5.36,5.36,0,0,1-.94,3.16,2.76,2.76,0,0,1-2.29,1.34q-3.46,0-7-7.18T552.44,879a67.92,67.92,0,0,1,6.12-28.14A53.87,53.87,0,0,1,575.9,829a40.8,40.8,0,0,1,24.68-8.22q11,0,16.66,6.14a21.18,21.18,0,0,1,5.7,15,30.71,30.71,0,0,1-3.84,15.25,25.36,25.36,0,0,1-11.64,10.6,17.85,17.85,0,0,1,8.47,4.1,18.93,18.93,0,0,1,4.79,7.29,28.22,28.22,0,0,1,1.67,10.1,41.43,41.43,0,0,1-3.87,17.66,35.13,35.13,0,0,1-11.39,13.81,26.26,26.26,0,0,1-15.69,5.48q-2.38,0-10.18-.69-3.72-.26-7.8-.26a40.11,40.11,0,0,0-11,1.39l.92-4.75q6.39-.52,9.11-4.35t5.08-16.92l9-50.2a31.19,31.19,0,0,0,.55-4.88,3.66,3.66,0,0,0-.76-2.3,2.32,2.32,0,0,0-1.92-1A3.66,3.66,0,0,0,583.21,842.46Zm8.38,31.14L588.48,891a190.35,190.35,0,0,1-4.56,20.76,26.65,26.65,0,0,1-3.33,7.34A29.58,29.58,0,0,0,590,921q10.66,0,16.11-9.34a40.5,40.5,0,0,0,5.46-20.84,21.85,21.85,0,0,0-2-9.81,12.12,12.12,0,0,0-5.36-5.75Q600.9,873.61,591.59,873.6Z"/><path class="cls-22" d="M661.51,903.53l2,3.8q-14.94,20.13-25.6,20.13a7.19,7.19,0,0,1-6.61-4.15Q629,919.17,629,910a92,92,0,0,1,7.92-36.8q8.89-20.82,21.26-20.82a7.75,7.75,0,0,1,6.62,3.07q2.28,3.06,2.28,8.42a24.33,24.33,0,0,1-2.74,11.06q-2.75,5.44-9.81,11.31-3.54,2.85-15.11,10.28a75.44,75.44,0,0,0-.55,8.9c0,4.09.45,6.94,1.37,8.55a4.33,4.33,0,0,0,4,2.42,10.11,10.11,0,0,0,5.48-2Q653.79,911.74,661.51,903.53ZM640.19,891q9.81-6.22,14.74-13.39a17.79,17.79,0,0,0,3.36-9.94,11.06,11.06,0,0,0-1.38-5.92,4.07,4.07,0,0,0-3.56-2.2A6,6,0,0,0,649,862q-2.87,3.19-4.81,9.67A116,116,0,0,0,640.19,891Z"/><path class="cls-22" d="M713.55,851.09l4-1.2L713,871.74q-2.75,13.05-5.18,30.06a109.4,109.4,0,0,0-1.34,11.93c0,1.78.5,2.67,1.52,2.67.65,0,1.69-.6,3.11-1.81a45.55,45.55,0,0,0,7.25-8l2,3.37q-6.95,9-8.9,10.89a32,32,0,0,1-7.43,5.61,9.7,9.7,0,0,1-4.51,1.21,2.81,2.81,0,0,1-2.38-1,4.9,4.9,0,0,1-.79-3,17.49,17.49,0,0,1,.49-3.54l2.43-11.75a62.19,62.19,0,0,1-12.49,15.29q-4.44,4-8.16,4a5.91,5.91,0,0,1-5.43-3.54q-2.55-4.76-2.56-12.44A70.12,70.12,0,0,1,674,891.26a83.78,83.78,0,0,1,9.23-20.38q5.79-9.17,12.19-13.48,4.93-3.28,12.67-3.28a23.37,23.37,0,0,1,4,.34ZM706,864.31a20.81,20.81,0,0,0-5.55-.95,12.82,12.82,0,0,0-9.56,4.28q-4.1,4.27-7.59,15.37a73.2,73.2,0,0,0-3.5,22.16c0,3.92.46,6.74,1.4,8.47s2.15,2.59,3.65,2.59q4.21,0,9-6.44t7.07-18.53Z"/><path class="cls-22" d="M765.57,854.81h8.68L768.52,885q-5.06,26.31-5.06,29.93a4.67,4.67,0,0,0,.55,2.51,1.5,1.5,0,0,0,1.22.86,4,4,0,0,0,2.44-1.29,92.38,92.38,0,0,0,7.61-10l2,3.19q-12.24,18.06-18,18.06a3.94,3.94,0,0,1-3.32-2.12,11,11,0,0,1-1.38-6,73.35,73.35,0,0,1,1.33-12,63,63,0,0,1-13.4,15.46q-5.29,4.41-9.2,4.41a3.78,3.78,0,0,1-3.35-2q-1.22-2-1.21-6.31a51.6,51.6,0,0,1,.55-7.27q.78-5.46,4-21.89,4.08-20.84,4.08-25c0-1.61-.41-2.42-1.22-2.42a5.4,5.4,0,0,0-3,1.6,55.46,55.46,0,0,0-6.46,7.73l-2.68-3Q732.2,859,736.5,855.8c2.86-2.16,5.17-3.24,6.91-3.24a2.72,2.72,0,0,1,2.38,1.52,9.39,9.39,0,0,1,.91,4.71q0,6-4.38,29.33-3.9,21-3.9,24a5.66,5.66,0,0,0,.82,3.11,2.26,2.26,0,0,0,1.8,1.3q3.4,0,9.67-8a41.61,41.61,0,0,0,8.22-18.19Z"/><path class="cls-22" d="M798.87,839.26l9.67-5.26-4.38,24.18h12.62l-1,6.13H803.18l-5.32,29q-2.54,13-2.53,18.13a6.25,6.25,0,0,0,.7,3.37,2.21,2.21,0,0,0,1.92,1q1.89,0,5.79-3.2a82.25,82.25,0,0,0,9.75-9.59l2.32,4Q802.46,921.24,798,924.44t-7.25,3.19a4,4,0,0,1-3.56-2.33c-.88-1.55-1.31-4.09-1.31-7.6q0-6.23,2.31-19l6.2-34.38h-9.87l1.1-6.13h9.88Z"/><path class="cls-22" d="M823.67,872.6,821,869.67q6.07-9.51,11.1-13.52t8.55-4a3.71,3.71,0,0,1,3,1.21,4.88,4.88,0,0,1,1,3.28q0,2.5-3.95,21.25-6.44,30.68-6.44,37a4.32,4.32,0,0,0,.43,2c.28.55.59.82.91.82q1.95,0,10-10.71l2.38,3.28q-8.36,11.15-12.19,14.25c-2.56,2.08-4.65,3.11-6.27,3.11a3.87,3.87,0,0,1-3.39-1.9,9.53,9.53,0,0,1-1.24-5.27q0-10.8,9.14-52.78a17.26,17.26,0,0,0,.42-3.54c0-1.15-.36-1.73-1.09-1.73a4.47,4.47,0,0,0-2.78,1.38Q829,865.17,823.67,872.6Zm23.94-57.18a3.65,3.65,0,0,1,3.11,1.77,7.76,7.76,0,0,1,1.22,4.53,12.11,12.11,0,0,1-1.86,6.7q-1.86,2.9-4.17,2.89a3.58,3.58,0,0,1-3-1.81,8.41,8.41,0,0,1-1.22-4.75,11.84,11.84,0,0,1,1.77-6.61C844.59,816.32,846,815.42,847.61,815.42Z"/><path class="cls-22" d="M853.71,858.18h14.56q3.6-21.6,8.23-32.14a43.88,43.88,0,0,1,12.06-16.63q7.44-6.09,14-6.09a7.19,7.19,0,0,1,5.61,2.08,7.62,7.62,0,0,1,.6,9.24,4,4,0,0,1-3.35,1.73c-1.43,0-4.11-.61-8.06-1.82a17.61,17.61,0,0,0-4.58-.86q-4,0-7.26,7t-5.19,19l-3.06,18.4h16.15l-1,6.13H876.11l-9.54,55.12q-4.46,25.14-14.23,38.09t-21.24,13a7.59,7.59,0,0,1-5.82-2.11,7.39,7.39,0,0,1-2-5.23,6.37,6.37,0,0,1,1.37-4.28,4.93,4.93,0,0,1,3.93-1.6,24.07,24.07,0,0,1,3.78.44,46.32,46.32,0,0,0,8.17.77q6,0,8.77-4t5.49-19.66l12.37-70.49H852.61Z"/><path class="cls-22" d="M932.72,854.81h8.68L935.67,885q-5.05,26.31-5.06,29.93a4.67,4.67,0,0,0,.55,2.51,1.49,1.49,0,0,0,1.22.86,3.92,3.92,0,0,0,2.43-1.29c1.35-1.33,3.88-4.67,7.62-10l2,3.19q-12.24,18.06-18,18.06a4,4,0,0,1-3.33-2.12,11.06,11.06,0,0,1-1.37-6,73.15,73.15,0,0,1,1.32-12,63,63,0,0,1-13.39,15.46q-5.29,4.41-9.2,4.41a3.78,3.78,0,0,1-3.35-2q-1.22-2-1.21-6.31a51.6,51.6,0,0,1,.55-7.27q.78-5.46,4-21.89,4.08-20.84,4.08-25c0-1.61-.41-2.42-1.22-2.42a5.42,5.42,0,0,0-3,1.6,56.38,56.38,0,0,0-6.45,7.73l-2.69-3q8.18-10.36,12.47-13.61c2.86-2.16,5.17-3.24,6.91-3.24a2.72,2.72,0,0,1,2.38,1.52,9.39,9.39,0,0,1,.91,4.71q0,6-4.38,29.33-3.9,21-3.9,24a5.66,5.66,0,0,0,.82,3.11,2.23,2.23,0,0,0,1.79,1.3q3.42,0,9.68-8a41.73,41.73,0,0,0,8.22-18.19Z"/><path class="cls-22" d="M974.3,904.4l2.07,3.11a72.9,72.9,0,0,1-11.24,13.86q-6.5,6.27-10.69,6.26a3.56,3.56,0,0,1-3.11-2,10.83,10.83,0,0,1-1.22-5.57q0-6.91,3.77-28.68l6.58-37.92q3.59-20.56,6-27.56,3.78-10.59,10.68-16.44t14.58-5.85a5.08,5.08,0,0,1,4.1,1.78,6.48,6.48,0,0,1,1.5,4.31,7,7,0,0,1-1.46,4.57,5.16,5.16,0,0,1-4.25,1.78,22.46,22.46,0,0,1-5.16-.86,23.65,23.65,0,0,0-5.41-.69,4.7,4.7,0,0,0-3.76,1.46q-1.77,2.07-3.19,8.68t-4.64,26.14L963.39,887q-4.51,27.21-4.51,28.42c0,1.84.46,2.76,1.4,2.76s2.19-.75,3.9-2.25A70.64,70.64,0,0,0,974.3,904.4Z"/><path class="cls-22" d="M1004.22,904.4l2.07,3.11a72.9,72.9,0,0,1-11.24,13.86q-6.49,6.27-10.69,6.26a3.56,3.56,0,0,1-3.11-2A10.83,10.83,0,0,1,980,920q0-6.91,3.77-28.68l6.58-37.92q3.58-20.56,6-27.56,3.78-10.59,10.68-16.44t14.58-5.85a5.08,5.08,0,0,1,4.1,1.78,6.48,6.48,0,0,1,1.5,4.31,7,7,0,0,1-1.46,4.57,5.16,5.16,0,0,1-4.25,1.78,22.46,22.46,0,0,1-5.16-.86,23.65,23.65,0,0,0-5.41-.69,4.7,4.7,0,0,0-3.76,1.46q-1.77,2.07-3.19,8.68t-4.64,26.14L993.31,887q-4.51,27.21-4.51,28.42c0,1.84.46,2.76,1.4,2.76s2.19-.75,3.9-2.25A70.64,70.64,0,0,0,1004.22,904.4Z"/><path class="cls-23" d="M354.46,1009.12a21,21,0,0,1,5.6-4.59,10.65,10.65,0,0,1,4.87-1.46,4.66,4.66,0,0,1,3.94,2c1,1.31,1.48,3.29,1.48,5.94a25.42,25.42,0,0,1-2.71,11.28,22.21,22.21,0,0,1-6.7,8.41,13.33,13.33,0,0,1-7.78,2.88,7,7,0,0,1-5.17-1.9,6.61,6.61,0,0,1-1.94-4.92A33.89,33.89,0,0,1,347,1020l4.15-18.6A32.78,32.78,0,0,1,355,991a17,17,0,0,1,6-5.69,14.3,14.3,0,0,1,7.07-2.13,5,5,0,0,1,2.93.69,2.16,2.16,0,0,1,.93,1.84,2.21,2.21,0,0,1-.84,1.76,3.62,3.62,0,0,1-2.39.7,24.8,24.8,0,0,1-4-.53,12.34,12.34,0,0,0-2.25-.24,3.21,3.21,0,0,0-2.85,1.9,39.13,39.13,0,0,0-2.22,7.49Zm6.92-2.15q-1.72,0-4.09,2.07c-1.59,1.39-3.08,3.83-4.49,7.34a27.67,27.67,0,0,0-2.11,10.31,4.47,4.47,0,0,0,1.22,3.19,3.79,3.79,0,0,0,2.83,1.28q3.9,0,7-6.17a27.45,27.45,0,0,0,3.06-12.29,8.1,8.1,0,0,0-1.16-4.53A2.54,2.54,0,0,0,361.38,1007Z"/><path class="cls-23" d="M392.42,1023.71l1.16,1.54q-8.61,8.19-14.76,8.19a4.56,4.56,0,0,1-3.82-1.68c-.87-1.13-1.31-2.93-1.31-5.42a28.36,28.36,0,0,1,4.57-15q5.13-8.48,12.27-8.48a5.35,5.35,0,0,1,3.81,1.25,4.5,4.5,0,0,1,1.32,3.43,7.72,7.72,0,0,1-1.58,4.5,18.41,18.41,0,0,1-5.66,4.6q-2,1.17-8.72,4.19a22.09,22.09,0,0,0-.32,3.62,5.78,5.78,0,0,0,.79,3.48,2.78,2.78,0,0,0,2.31,1,7.5,7.5,0,0,0,3.16-.81A43.91,43.91,0,0,0,392.42,1023.71Zm-12.3-5.1a27.84,27.84,0,0,0,8.51-5.45,6,6,0,0,0,1.93-4,3.48,3.48,0,0,0-.79-2.41,2.61,2.61,0,0,0-2.06-.9,4.06,4.06,0,0,0-2.53,1,9.77,9.77,0,0,0-2.77,3.94A35.21,35.21,0,0,0,380.12,1018.61Z"/><path class="cls-23" d="M413.1,1024.06l1.19,1.26a34.65,34.65,0,0,1-6.48,5.64q-3.75,2.55-6.17,2.55a2.26,2.26,0,0,1-1.8-.82,3.39,3.39,0,0,1-.7-2.27q0-2.82,2.18-11.67l3.79-15.44a66.39,66.39,0,0,1,3.47-11.21A16.42,16.42,0,0,1,423.16,983a3.61,3.61,0,0,1,2.37.72,2.24,2.24,0,0,1,.86,1.76,2.37,2.37,0,0,1-.85,1.86,3.66,3.66,0,0,1-2.45.72,18.18,18.18,0,0,1-3-.35,18.79,18.79,0,0,0-3.12-.28,3.42,3.42,0,0,0-2.17.59,7.56,7.56,0,0,0-1.84,3.54q-.83,2.68-2.68,10.63L406.8,1017q-2.61,11.07-2.6,11.56c0,.75.27,1.13.81,1.13a5,5,0,0,0,2.25-.92A35.54,35.54,0,0,0,413.1,1024.06Z"/><path class="cls-23" d="M430.36,1024.06l1.19,1.26a34.33,34.33,0,0,1-6.48,5.64q-3.75,2.55-6.17,2.55a2.26,2.26,0,0,1-1.8-.82,3.44,3.44,0,0,1-.7-2.27q0-2.82,2.18-11.67l3.79-15.44q2.07-8.35,3.48-11.21A16.4,16.4,0,0,1,440.42,983a3.61,3.61,0,0,1,2.37.72,2.24,2.24,0,0,1,.86,1.76,2.36,2.36,0,0,1-.84,1.86,3.68,3.68,0,0,1-2.46.72,18.18,18.18,0,0,1-3-.35,18.7,18.7,0,0,0-3.12-.28,3.42,3.42,0,0,0-2.17.59,7.56,7.56,0,0,0-1.84,3.54q-.83,2.68-2.68,10.63L424.06,1017q-2.6,11.07-2.6,11.56c0,.75.27,1.13.81,1.13a5,5,0,0,0,2.25-.92A35.54,35.54,0,0,0,430.36,1024.06Z"/><path class="cls-23" d="M451.42,1023.71l1.16,1.54q-8.62,8.19-14.77,8.19a4.56,4.56,0,0,1-3.81-1.68c-.88-1.13-1.32-2.93-1.32-5.42a28.36,28.36,0,0,1,4.57-15q5.13-8.48,12.27-8.48a5.35,5.35,0,0,1,3.81,1.25,4.5,4.5,0,0,1,1.32,3.43,7.72,7.72,0,0,1-1.58,4.5,18.41,18.41,0,0,1-5.66,4.6q-2,1.17-8.72,4.19a22.09,22.09,0,0,0-.32,3.62,5.7,5.7,0,0,0,.8,3.48,2.75,2.75,0,0,0,2.3,1,7.5,7.5,0,0,0,3.16-.81A44.37,44.37,0,0,0,451.42,1023.71Zm-12.31-5.1a27.72,27.72,0,0,0,8.51-5.45,6,6,0,0,0,1.93-4,3.48,3.48,0,0,0-.79-2.41,2.59,2.59,0,0,0-2.05-.9,4.09,4.09,0,0,0-2.54,1,9.77,9.77,0,0,0-2.77,3.94A35.74,35.74,0,0,0,439.11,1018.61Z"/><path class="cls-23" d="M479.68,1006.62a22.13,22.13,0,0,1-5.87.88q-1.47,0-3.27-.18c-1.66-.19-2.78-.28-3.34-.28a2.45,2.45,0,0,0-1.62.49,1.62,1.62,0,0,0-.56,1.27,1.19,1.19,0,0,0,1.27,1.3c1,.12,1.58.6,1.58,1.44a1.43,1.43,0,0,1-.49,1.07,1.58,1.58,0,0,1-1.13.48,3.07,3.07,0,0,1-2.33-1.25,4.58,4.58,0,0,1-1.08-3.11,5.22,5.22,0,0,1,2-4.11,7.3,7.3,0,0,1,4.95-1.73,28.24,28.24,0,0,1,4.19.42,44.2,44.2,0,0,0,6.11.67,5.78,5.78,0,0,0,3.56-1.26,2.33,2.33,0,0,1,1.26-.57,1,1,0,0,1,.72.27.7.7,0,0,1,.3.51,1.2,1.2,0,0,1-.39.77,73.19,73.19,0,0,1-5.45,5.55l-10.89,10.43q-4.79,4.58-7.95,7.38a30.26,30.26,0,0,1,3.13-.23,14.17,14.17,0,0,1,2.88.27,41.25,41.25,0,0,1,4.19,1.21,19.57,19.57,0,0,0,6.11,1.3,3.4,3.4,0,0,0,2.27-.68,2.2,2.2,0,0,0,.79-1.74,4.13,4.13,0,0,0-.56-1.69,4.23,4.23,0,0,1-.49-1.62,2,2,0,0,1,.56-1.44,1.84,1.84,0,0,1,1.41-.6,2.13,2.13,0,0,1,1.7.83,3.21,3.21,0,0,1,.69,2.13,7.56,7.56,0,0,1-1.44,4.15,10,10,0,0,1-3.63,3.33,11.34,11.34,0,0,1-5.37,1.16,29.08,29.08,0,0,1-7.7-1.52,25.15,25.15,0,0,0-6.19-1.23,4.79,4.79,0,0,0-2.78,1.25,2.65,2.65,0,0,1-1.58.8c-.87,0-1.3-.21-1.3-.64a2.42,2.42,0,0,1,.74-1.46q2-2.31,10-9.59,5.41-4.9,9.49-8.95Z"/><path class="cls-23" d="M513.12,1002.37l2.32-.5-2.64,8.9q-1.59,5.31-3,12.23a33.22,33.22,0,0,0-.77,4.85c0,.73.29,1.09.88,1.09a4.21,4.21,0,0,0,1.79-.73,23.06,23.06,0,0,0,4.18-3.24l1.13,1.37a67.73,67.73,0,0,1-5.13,4.43,19.64,19.64,0,0,1-4.29,2.29,7.7,7.7,0,0,1-2.6.49,2,2,0,0,1-1.38-.42,1.6,1.6,0,0,1-.45-1.23,5,5,0,0,1,.28-1.44l1.4-4.79a29.68,29.68,0,0,1-7.2,6.23,9.06,9.06,0,0,1-4.71,1.61,3.68,3.68,0,0,1-3.13-1.44,8.07,8.07,0,0,1-1.48-5.06,21,21,0,0,1,2-8.3,30.71,30.71,0,0,1,5.32-8.29,22.6,22.6,0,0,1,7-5.49,17.32,17.32,0,0,1,7.32-1.33,17.66,17.66,0,0,1,2.28.14Zm-4.36,5.37a17.17,17.17,0,0,0-3.2-.38,9,9,0,0,0-5.52,1.74c-1.57,1.16-3,3.24-4.38,6.26a21.84,21.84,0,0,0-2,9,5.72,5.72,0,0,0,.81,3.45,2.54,2.54,0,0,0,2.11,1c1.61,0,3.35-.87,5.2-2.62a15.57,15.57,0,0,0,4.08-7.54Z"/><path class="cls-23" d="M553.62,1023.71l1.16,1.54q-8.62,8.19-14.77,8.19a4.56,4.56,0,0,1-3.81-1.68c-.88-1.13-1.32-2.93-1.32-5.42a28.36,28.36,0,0,1,4.57-15q5.13-8.48,12.27-8.48a5.35,5.35,0,0,1,3.81,1.25,4.5,4.5,0,0,1,1.32,3.43,7.72,7.72,0,0,1-1.58,4.5,18.41,18.41,0,0,1-5.66,4.6q-2,1.17-8.72,4.19a22.09,22.09,0,0,0-.32,3.62,5.78,5.78,0,0,0,.79,3.48,2.78,2.78,0,0,0,2.31,1,7.5,7.5,0,0,0,3.16-.81A44.37,44.37,0,0,0,553.62,1023.71Zm-12.31-5.1a27.84,27.84,0,0,0,8.51-5.45,6,6,0,0,0,1.93-4,3.48,3.48,0,0,0-.79-2.41,2.6,2.6,0,0,0-2.05-.9,4.06,4.06,0,0,0-2.54,1,9.77,9.77,0,0,0-2.77,3.94A35.74,35.74,0,0,0,541.31,1018.61Z"/><path class="cls-23" d="M560.72,1011.22l-1.2-1.23a36.47,36.47,0,0,1,7.18-5.72,10.23,10.23,0,0,1,4.57-1.41,1.93,1.93,0,0,1,1.17.31.92.92,0,0,1,.42.74,6.23,6.23,0,0,1-.18,1.13l-1.58,7.07a43.31,43.31,0,0,1,9-7.42,9.67,9.67,0,0,1,4.74-1.8,2.72,2.72,0,0,1,2.14.88,3.7,3.7,0,0,1,.77,2.53,11,11,0,0,1-.31,2.46q-.57,2.29-2.94,10-2.25,7.17-2.25,9.53a2.19,2.19,0,0,0,.21,1.08.66.66,0,0,0,.6.36c.68,0,1.75-.65,3.2-2,1-.93,2.06-1.8,3.09-2.6l.88,1.27a31.55,31.55,0,0,1-6.71,5.73,7.35,7.35,0,0,1-3.66,1.4,2.46,2.46,0,0,1-2.07-1,5.29,5.29,0,0,1-.74-3.15q0-3.14,3.9-15.57a36.89,36.89,0,0,0,1.2-5.17c0-.73-.44-1.09-1.3-1.09a7.07,7.07,0,0,0-3.62,1.48,21.59,21.59,0,0,0-5.52,5.14,16.65,16.65,0,0,0-2.36,6l-2.85,12.29h-5.23q1.47-5.28,2.56-10.11l3.13-13.37a6.2,6.2,0,0,0,.18-1.16c0-.64-.24-.95-.71-.95a3.22,3.22,0,0,0-1.61.74A21.77,21.77,0,0,0,560.72,1011.22Z"/><path class="cls-23" d="M618.44,997.55l5.59-2.14-2.53,9.84h7.28l-.56,2.49h-7.29l-3.06,11.79a32.91,32.91,0,0,0-1.46,7.37,2,2,0,0,0,.4,1.38,1.47,1.47,0,0,0,1.11.42,8,8,0,0,0,3.34-1.3,43.11,43.11,0,0,0,5.62-3.91l1.34,1.62q-7.71,5.81-10.3,7.1a10.07,10.07,0,0,1-4.19,1.3,2.46,2.46,0,0,1-2.05-1,4.94,4.94,0,0,1-.76-3.09,34.74,34.74,0,0,1,1.34-7.73l3.58-14h-5.7l.63-2.49h5.7Z"/><path class="cls-23" d="M655.38,1003.88h5l-3.31,12.28q-2.91,10.71-2.92,12.19a1.5,1.5,0,0,0,.32,1,.94.94,0,0,0,.7.35,2.73,2.73,0,0,0,1.41-.53,42.54,42.54,0,0,0,4.39-4.08l1.16,1.3q-7.07,7.35-10.4,7.35a2.53,2.53,0,0,1-1.92-.86,3.48,3.48,0,0,1-.79-2.44,21.28,21.28,0,0,1,.76-4.89,30.76,30.76,0,0,1-7.73,6.29,10.82,10.82,0,0,1-5.3,1.79,2.41,2.41,0,0,1-1.93-.81,3.84,3.84,0,0,1-.71-2.56,15.18,15.18,0,0,1,.32-3q.46-2.22,2.32-8.91c1.57-5.65,2.36-9,2.36-10.17,0-.66-.24-1-.71-1a3.78,3.78,0,0,0-1.72.65,27.23,27.23,0,0,0-3.73,3.15l-1.54-1.23a42.38,42.38,0,0,1,7.19-5.54,9.17,9.17,0,0,1,4-1.32,1.72,1.72,0,0,1,1.37.62,2.92,2.92,0,0,1,.53,1.92q0,2.43-2.54,11.93c-1.5,5.7-2.25,9-2.25,9.75a1.81,1.81,0,0,0,.48,1.27,1.38,1.38,0,0,0,1,.53c1.32,0,3.18-1.09,5.59-3.25a15.31,15.31,0,0,0,4.74-7.4Z"/><path class="cls-23" d="M680.18,1003a8.23,8.23,0,0,1,4.83,1.22,3.42,3.42,0,0,1,1.71,2.79,2.24,2.24,0,0,1-.72,1.65,2.4,2.4,0,0,1-1.74.71,2.15,2.15,0,0,1-1.16-.3,6.51,6.51,0,0,1-1.41-1.5c-1.15-1.52-2.28-2.28-3.41-2.28a3.53,3.53,0,0,0-2.55,1.1,3.75,3.75,0,0,0-1.11,2.76,6,6,0,0,0,.71,2.79,24.43,24.43,0,0,0,3.55,4.37q3.9,4.15,3.9,7.87a8.44,8.44,0,0,1-3.16,6.51,11.88,11.88,0,0,1-8.16,2.79c-2.79,0-4.86-.56-6.22-1.7a5.28,5.28,0,0,1-2-4.2,2.86,2.86,0,0,1,.77-2,2.53,2.53,0,0,1,1.9-.81,2.42,2.42,0,0,1,1.69.65,2,2,0,0,1,.7,1.53,8.47,8.47,0,0,1,0,.91c0,.31,0,.57,0,.78a2.48,2.48,0,0,0,1,2,3.91,3.91,0,0,0,2.59.8,7.89,7.89,0,0,0,3.33-.65,4.87,4.87,0,0,0,2.24-2,5,5,0,0,0,.81-2.62,4.87,4.87,0,0,0-.76-2.53,32.19,32.19,0,0,0-3.39-4.17q-3.66-4.08-3.66-7.83a8,8,0,0,1,2.78-6A10,10,0,0,1,680.18,1003Z"/><path class="cls-23" d="M704.54,1011.05l-1-1.41a28.32,28.32,0,0,1,6.61-5.13,11.68,11.68,0,0,1,4.94-1.65,1.65,1.65,0,0,1,1.11.31,1.09,1.09,0,0,1,.37.88,12.23,12.23,0,0,1-.56,2.71c-.54,2-.91,3.53-1.13,4.68q8.42-8.58,12.87-8.58a2.32,2.32,0,0,1,1.76.63,2.88,2.88,0,0,1,.59,2,20.87,20.87,0,0,1-1,5,34.87,34.87,0,0,1,7-5.92,10.16,10.16,0,0,1,4.61-1.74,3,3,0,0,1,2.28.84,3.63,3.63,0,0,1,.81,2.6,11,11,0,0,1-.35,2.5c-.24,1-1.09,3.89-2.57,8.79q-2.78,9.1-2.77,10.86c0,.8.32,1.2,1,1.2a2.25,2.25,0,0,0,1.3-.43,33.63,33.63,0,0,0,4.25-3.65l1.16,1.26c-.49.4-1.41,1.22-2.77,2.46a33.23,33.23,0,0,1-3.87,3.17,7.16,7.16,0,0,1-3.45,1.19,2.33,2.33,0,0,1-1.86-1,4.56,4.56,0,0,1-.81-2.87,18.91,18.91,0,0,1,.5-4q.48-2.26,2.88-10.18a40.4,40.4,0,0,0,1.79-7.21c0-.79-.35-1.19-1.05-1.19a5,5,0,0,0-2.36.88,18.16,18.16,0,0,0-5.06,4.46,16.77,16.77,0,0,0-2.46,5.8q-2.35,8.69-3.52,14.17h-5l5.24-21.48a23.39,23.39,0,0,0,.56-2.67,1.17,1.17,0,0,0-.28-.86,1.06,1.06,0,0,0-.81-.3,6.19,6.19,0,0,0-3,1.47,19.66,19.66,0,0,0-5,4.84,22.46,22.46,0,0,0-2.61,7.12l-2.7,11.88H705l4-16.77q1.75-7.28,1.75-7.91,0-.81-.63-.81C709.22,1007,707.35,1008.38,704.54,1011.05Z"/><path class="cls-23" d="M772.22,1002.37l2.32-.5-2.64,8.9q-1.57,5.31-3,12.23a33.22,33.22,0,0,0-.77,4.85c0,.73.29,1.09.88,1.09a4.21,4.21,0,0,0,1.79-.73A23.47,23.47,0,0,0,775,1025l1.12,1.37a67.73,67.73,0,0,1-5.13,4.43,19.64,19.64,0,0,1-4.29,2.29,7.7,7.7,0,0,1-2.6.49,2,2,0,0,1-1.37-.42,1.57,1.57,0,0,1-.46-1.23,5,5,0,0,1,.28-1.44l1.41-4.79a29.92,29.92,0,0,1-7.21,6.23,9.06,9.06,0,0,1-4.71,1.61,3.69,3.69,0,0,1-3.13-1.44,8.07,8.07,0,0,1-1.48-5.06,21,21,0,0,1,2-8.3,30.51,30.51,0,0,1,5.33-8.29,22.48,22.48,0,0,1,7-5.49,17.24,17.24,0,0,1,7.31-1.33,17.66,17.66,0,0,1,2.28.14Zm-4.36,5.37a17.08,17.08,0,0,0-3.2-.38,9,9,0,0,0-5.52,1.74c-1.57,1.16-3,3.24-4.38,6.26a22,22,0,0,0-2,9,5.72,5.72,0,0,0,.81,3.45,2.54,2.54,0,0,0,2.11,1q2.43,0,5.2-2.62a15.57,15.57,0,0,0,4.08-7.54Z"/><path class="cls-23" d="M779.53,1011.22l-1.2-1.23a36.77,36.77,0,0,1,7.18-5.72,10.26,10.26,0,0,1,4.58-1.41,1.9,1.9,0,0,1,1.16.31.92.92,0,0,1,.42.74,6.23,6.23,0,0,1-.18,1.13l-1.58,7.07a43.57,43.57,0,0,1,9-7.42,9.67,9.67,0,0,1,4.74-1.8,2.72,2.72,0,0,1,2.14.88,3.7,3.7,0,0,1,.78,2.53,11.08,11.08,0,0,1-.32,2.46q-.56,2.29-2.94,10c-1.5,4.78-2.24,8-2.24,9.53a2.19,2.19,0,0,0,.21,1.08.66.66,0,0,0,.59.36c.68,0,1.75-.65,3.2-2,1-.93,2.07-1.8,3.1-2.6l.88,1.27a31.84,31.84,0,0,1-6.72,5.73,7.32,7.32,0,0,1-3.65,1.4,2.46,2.46,0,0,1-2.08-1,5.29,5.29,0,0,1-.74-3.15q0-3.14,3.91-15.57a37.72,37.72,0,0,0,1.19-5.17c0-.73-.43-1.09-1.3-1.09a7.1,7.1,0,0,0-3.62,1.48,21.92,21.92,0,0,0-5.52,5.14,16.83,16.83,0,0,0-2.36,6l-2.84,12.29h-5.24q1.47-5.28,2.56-10.11l3.13-13.37a6.2,6.2,0,0,0,.18-1.16c0-.64-.24-.95-.7-.95a3.21,3.21,0,0,0-1.62.74A22.42,22.42,0,0,0,779.53,1011.22Z"/><path class="cls-23" d="M829,1003a7.15,7.15,0,0,1,5.73,2.75c1.52,1.82,2.29,4.37,2.29,7.62a20.56,20.56,0,0,1-5.49,14q-5.47,6.21-11.6,6.21a7.9,7.9,0,0,1-6.06-2.46,9.42,9.42,0,0,1-2.31-6.72,23.93,23.93,0,0,1,4.22-13.64Q821.12,1003,829,1003Zm-3,2.64q-3,0-5.78,4.27t-2.8,11.8a13,13,0,0,0,1.73,7.2,3.87,3.87,0,0,0,3.37,1.94q3,0,5.38-3.66a21.14,21.14,0,0,0,3.09-11.78q0-5.26-1.42-7.52A4.16,4.16,0,0,0,826,1005.6Z"/><path class="cls-23" d="M855.82,1003a8.2,8.2,0,0,1,4.83,1.22,3.42,3.42,0,0,1,1.71,2.79,2.24,2.24,0,0,1-.72,1.65,2.4,2.4,0,0,1-1.74.71,2.18,2.18,0,0,1-1.16-.3,6.51,6.51,0,0,1-1.41-1.5c-1.15-1.52-2.28-2.28-3.41-2.28a3.53,3.53,0,0,0-2.55,1.1,3.75,3.75,0,0,0-1.11,2.76,6,6,0,0,0,.71,2.79,24.43,24.43,0,0,0,3.55,4.37q3.9,4.15,3.9,7.87a8.44,8.44,0,0,1-3.16,6.51,11.88,11.88,0,0,1-8.16,2.79c-2.79,0-4.86-.56-6.22-1.7a5.28,5.28,0,0,1-2-4.2,2.86,2.86,0,0,1,.77-2,2.53,2.53,0,0,1,1.9-.81,2.42,2.42,0,0,1,1.69.65,2,2,0,0,1,.7,1.53,8.47,8.47,0,0,1,0,.91c0,.31,0,.57,0,.78a2.48,2.48,0,0,0,1,2,3.91,3.91,0,0,0,2.59.8,7.89,7.89,0,0,0,3.33-.65,4.87,4.87,0,0,0,2.24-2,5,5,0,0,0,.81-2.62,4.87,4.87,0,0,0-.76-2.53,32.19,32.19,0,0,0-3.39-4.17c-2.44-2.72-3.65-5.33-3.65-7.83a8,8,0,0,1,2.77-6A10,10,0,0,1,855.82,1003Z"/></svg>