<svg id="Capa_1" data-name="Capa 1" xmlns="http://www.w3.org/2000/svg" xmlns:xlink="http://www.w3.org/1999/xlink" viewBox="0 0 1200 1200"><defs><style>.cls-1{fill:#fff;}.cls-2{fill:url(#Rosa_fuerte_verano);}.cls-3{fill:url(#Rosa_fuerte_verano-2);}.cls-4{fill:url(#Rosa_fuerte_verano-3);}.cls-5{fill:url(#Rosa_fuerte_verano-4);}.cls-6{fill:url(#Rosa_fuerte_verano-5);}.cls-7{fill:url(#Rosa_fuerte_verano-6);}.cls-8{fill:url(#Rosa_fuerte_verano-7);}.cls-9{fill:url(#Rosa_fuerte_verano-8);}.cls-10{fill:url(#Rosa_fuerte_verano-9);}.cls-11{fill:url(#Rosa_fuerte_verano-10);}.cls-12{fill:url(#Rosa_fuerte_verano-11);}.cls-13{fill:url(#Rosa_fuerte_verano-12);}.cls-14{fill:url(#Rosa_fuerte_verano-13);}.cls-15{fill:url(#Rosa_fuerte_verano-14);}.cls-16{fill:url(#Rosa_fuerte_verano-15);}.cls-17{fill:url(#Rosa_fuerte_verano-16);}.cls-18{fill:url(#Rosa_fuerte_verano-17);}.cls-19{fill:url(#Rosa_fuerte_verano-18);}.cls-20{fill:url(#Rosa_fuerte_verano-19);}.cls-21{fill:url(#Rosa_fuerte_verano-20);}.cls-22{fill:url(#Rosa_fuerte_verano-21);}</style><linearGradient id="Rosa_fuerte_verano" x1="599.7" y1="769.12" x2="674.03" y2="843.46" gradientUnits="userSpaceOnUse"><stop offset="0" stop-color="#d47db2"/><stop offset="0.04" stop-color="#d378af"/><stop offset="0.5" stop-color="#c64191"/><stop offset="0.77" stop-color="#c12187"/><stop offset="1" stop-color="#be097f"/></linearGradient><linearGradient id="Rosa_fuerte_verano-2" x1="854.74" y1="331.49" x2="854.74" y2="602.89" xlink:href="#Rosa_fuerte_verano"/><linearGradient id="Rosa_fuerte_verano-3" x1="881.09" y1="331.49" x2="881.09" y2="602.89" xlink:href="#Rosa_fuerte_verano"/><linearGradient id="Rosa_fuerte_verano-4" x1="832.56" y1="331.5" x2="832.56" y2="602.89" xlink:href="#Rosa_fuerte_verano"/><linearGradient id="Rosa_fuerte_verano-5" x1="213.85" y1="106.09" x2="776.98" y2="857.78" xlink:href="#Rosa_fuerte_verano"/><linearGradient id="Rosa_fuerte_verano-6" x1="592.41" y1="341.25" x2="592.49" y2="341.38" xlink:href="#Rosa_fuerte_verano"/><linearGradient id="Rosa_fuerte_verano-7" x1="588.38" y1="80.62" x2="563.07" y2="1035.55" xlink:href="#Rosa_fuerte_verano"/><linearGradient id="Rosa_fuerte_verano-8" x1="332.78" y1="85.76" x2="882.51" y2="819.57" xlink:href="#Rosa_fuerte_verano"/><linearGradient id="Rosa_fuerte_verano-9" x1="317.71" y1="60.94" x2="891.96" y2="827.48" xlink:href="#Rosa_fuerte_verano"/><linearGradient id="Rosa_fuerte_verano-10" x1="495.6" y1="388.86" x2="500.03" y2="388.86" xlink:href="#Rosa_fuerte_verano"/><linearGradient id="Rosa_fuerte_verano-11" x1="613.94" y1="233.74" x2="613.94" y2="783.17" xlink:href="#Rosa_fuerte_verano"/><linearGradient id="Rosa_fuerte_verano-12" x1="819.38" y1="333.34" x2="820.7" y2="335.1" xlink:href="#Rosa_fuerte_verano"/><linearGradient id="Rosa_fuerte_verano-13" x1="560.39" y1="53.22" x2="938.48" y2="557.9" xlink:href="#Rosa_fuerte_verano"/><linearGradient id="Rosa_fuerte_verano-14" x1="464.11" y1="-64.79" x2="998.93" y2="649.11" xlink:href="#Rosa_fuerte_verano"/><linearGradient id="Rosa_fuerte_verano-15" x1="542.32" y1="77.14" x2="1000.06" y2="688.16" xlink:href="#Rosa_fuerte_verano"/><linearGradient id="Rosa_fuerte_verano-16" x1="555.51" y1="66.47" x2="529.35" y2="1053.52" xlink:href="#Rosa_fuerte_verano"/><linearGradient id="Rosa_fuerte_verano-17" x1="552.9" y1="43.3" x2="552.9" y2="434.32" xlink:href="#Rosa_fuerte_verano"/><linearGradient id="Rosa_fuerte_verano-18" x1="290.46" y1="292.31" x2="445.32" y2="1182.72" xlink:href="#Rosa_fuerte_verano"/><linearGradient id="Rosa_fuerte_verano-19" x1="-354.71" y1="-119.17" x2="678.97" y2="1260.64" xlink:href="#Rosa_fuerte_verano"/><linearGradient id="Rosa_fuerte_verano-20" x1="496.76" y1="615.22" x2="669.6" y2="845.94" xlink:href="#Rosa_fuerte_verano"/><linearGradient id="Rosa_fuerte_verano-21" x1="608.12" y1="496.97" x2="815.21" y2="706.29" xlink:href="#Rosa_fuerte_verano"/></defs><rect class="cls-1" x="2" width="1198" height="1198"/><path class="cls-2" d="M697.86,818a96.76,96.76,0,0,1-23,19.15c-12.27,7.41-21.59,4.78-26.18,5-4.58-.2-13.9,2.43-26.17-5A95.35,95.35,0,0,1,599.61,818l-.08-.07c9.47.54,26.79-12.47,37.82-12.47,8.55,0,11.34,5.32,11.34,5.32s2.8-5.32,11.35-5.32C671.06,805.49,688.38,818.5,697.86,818Z"/><path class="cls-3" d="M856.31,549.18a219.65,219.65,0,0,0-5-23.4v-.06c-1.79-6.41-3.8-12.54-6-18.21,11.19-24.74,32.54-91.88-16.08-173.66a2.66,2.66,0,0,1,.39.41,5.38,5.38,0,0,1,.54.61C840.62,345.85,918.76,434.77,856.31,549.18Z"/><path class="cls-4" d="M854.68,620.1c1.32-5,3-19.22,3.65-26.9v-.07c.16-1.08.16-2,.23-2.83a182.29,182.29,0,0,0,0-18.41c53.75-87.3,27-157.07,20.27-171.77.16.27.39.68.7,1.15C954.64,521.54,854.68,620.1,854.68,620.1Z"/><path class="cls-5" d="M836.89,487.83c-3.57-7.35-7.14-13.69-10.33-18.94-2.95-4.86-5.59-8.77-7.61-11.6,24.85-54.74,3.81-115.68,1.24-122.83,0,0,.08-.07,0-.07a.56.56,0,0,1,.24.41C857.4,394,846.45,456.35,836.89,487.83Z"/><path class="cls-6" d="M494.56,807.58c4.9,6,10.26,11.68,15.6,17.34s10.89,11.16,16.63,16.48,11.59,10.55,17.8,15.43c3.09,2.44,6,5.06,9.21,7.37l9.46,7.1,9.83,6.65c3.2,2.3,6.79,4.14,10.11,6.27a118.18,118.18,0,0,0,10.35,5.9c3.54,1.81,7,3.74,10.61,5.45l11,4.74c3.58,1.74,7.53,2.68,11.26,4.09a90.67,90.67,0,0,0,11.45,3.51l11.64,2.85-3.83.12a169.42,169.42,0,0,0,21.64-9c3.63-1.63,7-3.63,10.55-5.48s7-3.73,10.29-5.89l10-6.24,9.54-6.83c6.53-4.39,12.29-9.56,18.27-14.5,6.21-4.74,11.37-10.4,17-15.63s10.51-11.09,15.63-16.75c2.5-2.87,5.11-5.67,7.53-8.59l6.78-9.07c4.4-6.11,9.53-11.85,13.21-18.36l11.94-19.07c3.7-6.48,6.94-13.17,10.45-19.76a166.89,166.89,0,0,0,9.57-20.15L826.78,715c3.18-6.78,4.75-14,7.26-21l7.13-21.1c3.62-14.31,7-28.7,10.93-43.09-1.58,14.65-3.49,29.34-5.57,44l-4.85,21.81-2.57,10.9A77.68,77.68,0,0,1,836,717.38l-7.24,21.4c-2.21,7.21-5.42,14.12-8.62,21.05s-6.07,14-9.68,20.76l-11.67,20c-3.6,6.83-8.69,12.94-13.06,19.41l-6.87,9.56c-2.49,3.07-5.17,6-7.75,9-5.28,6-10.16,12.19-16.17,17.66s-11.22,11.52-17.73,16.56c-6.35,5.15-12.48,10.51-19.42,15.1l-10.16,7.13L697,901.61c-3.5,2.24-7.24,4.22-11,6.16s-7.43,4-11.4,5.65A183,183,0,0,1,650,922.8l-2,.61-1.79-.49-12.66-3.43a101.32,101.32,0,0,1-12.29-4.13c-4-1.58-8.16-2.88-11.89-4.86L597.93,905c-3.7-2-7.25-4.15-10.87-6.22s-7.09-4.32-10.48-6.64-6.93-4.49-10.06-7.07l-9.61-7.47c-6.11-5.24-12.3-10.38-17.92-16s-11.1-11.28-16.33-17.12-10.21-11.82-14.94-18A216.24,216.24,0,0,1,494.56,807.58Z"/><path class="cls-7" d="M592.62,341.13a.27.27,0,0,0,.15-.06,1.93,1.93,0,0,1-.7.4Z"/><path class="cls-8" d="M860.81,291.92c-11.18,27.37-59.65,18.27-59.65,18.27l-.07-.07c6.68,57.24-2.72,131.33-72.32,187.69-108.58,88-196.12,133.14-223.3,177-26.41,42.54-15.38,90.81-14.76,93.64-3.81-4.18-85-95.73-39.69-189.57-2.72,3.3-62.14,79.48-12.19,170.09,51.1,92.69,173.44,209,72.46,337.07,0-.13.08-.2.08-.34,1.09-6,15.61-93-78.21-201.9-80.7-93.64-185.48-195-118.45-335.39C383.45,404.17,708,369.45,776.85,222a.78.78,0,0,1,.24.06C782.68,223.09,880.7,243.25,860.81,291.92Z"/><path class="cls-9" d="M791.38,657.58s-68.2,22.58-95.85-23.33a4.64,4.64,0,0,1-.7-1.07c-.08-.07-.08-.07-.08-.14l.08.07c1.71,1.48,16.55,13.35,51.73,12.81,12.89-.21,27.42-4.45,44.74-12.88a56.31,56.31,0,0,1-13.13,15.78C780.74,651.71,785.94,656.7,791.38,657.58Z"/><path class="cls-10" d="M694.65,629.52a115.36,115.36,0,0,0,15,3.88,150.77,150.77,0,0,0,15.56,2.37,137.17,137.17,0,0,0,17.95.69c3.06.09,6.1-.33,9.11-.46s5.92-.69,8.78-1,5.54-1,8.15-1.43,5-1.15,7.25-1.64,4.38-.91,6.14-1.53l4.68-1.41c2.61-.77,4.16-1.15,4.16-1.15s-1.3.78-3.67,2l-4.31,2.25a46.33,46.33,0,0,1-5.85,2.53,58.33,58.33,0,0,1-7.19,2.53c-2.64.7-5.38,1.62-8.33,2.17s-6,1.22-9.17,1.49-6.37.7-9.61.66a102.59,102.59,0,0,1-18.87-1.35,89.31,89.31,0,0,1-15.79-4A63.79,63.79,0,0,1,694.65,629.52Z"/><path class="cls-11" d="M500,387.79c-1.32.67-2.72,1.34-4,2l-.39.13C497.08,389.27,498.56,388.53,500,387.79Z"/><path class="cls-12" d="M860.81,291.92c-11.18,27.37-59.65,18.27-59.65,18.27l-.07-.07c6.68,57.24-2.72,131.33-72.32,187.69-108.58,88-196.12,133.14-223.3,177-26.41,42.54-15.38,90.81-14.76,93.64-3.81-4.18-85-95.73-39.69-189.57-2.72,3.3-62.14,79.48-12.19,170.09,51.1,92.69,173.44,209,72.46,337.07,0-.13.08-.2.08-.34,61.36-186.53-131.65-272.22-146.18-400.85S541,472.19,541,472.19c-55.38,57.3-45.36,120.54-45.36,120.54,27.5-47.19,142.45-108.68,208.47-161.8S759.92,286,759.92,286s34.41,9.3,59-13.48c23.84-22-38-48.81-41.86-50.5C782.68,223.09,880.7,243.25,860.81,291.92Z"/><path class="cls-13" d="M820.19,334.39a.56.56,0,0,1,.24.41c-.08-.14-.08-.27-.24-.34C820.19,334.46,820.27,334.39,820.19,334.39Z"/><path class="cls-14" d="M836.89,487.83c-3.57-7.35-7.14-13.69-10.33-18.94,25.32-71.46-2.33-126.95-6.13-134.09C857.4,394,846.45,456.35,836.89,487.83Z"/><path class="cls-15" d="M856.31,549.18a219.65,219.65,0,0,0-5-23.4v-.06c46.6-105-12.66-180.81-21.13-190.85C840.62,345.85,918.76,434.77,856.31,549.18Z"/><path class="cls-16" d="M854.68,620.1c1.32-5,3-19.22,3.65-26.9v-.07c53.48-68.1,45.13-135.64,31.46-169.95a191.06,191.06,0,0,0-10.26-21.91C954.64,521.54,854.68,620.1,854.68,620.1Z"/><path class="cls-17" d="M765.82,206.24s-10.33,51.37-97.71,102.06c-58.25,33.85-185.17,90.95-245.28,122.36-68.12,35.53-92.59,75.24-92.59,75.24s-14.52-69,25.24-140.7c77-138.47,228.83-150.47,228.83-150.47s66-9.1,122.17-2.42c0,0,33.32-18.07,24.39-62.84C720.54,97.3,622.75,78.29,579.49,135.65c21-65.93,117.13-64.78,160.16-35.52,16.62,11.32,24.62,28.65,28,46C773.51,176.1,765.82,206.24,765.82,206.24Z"/><path class="cls-18" d="M750.74,109.88c-.32-.31-2.42-2.48-3.22-3.23a59.39,59.39,0,0,0-7.87-6.52c-43-29.26-139.11-30.41-160.16,35.52,1.32-2.76,24.85-48.94,98-43.75,0,0,46,1.68,64.88,33.14,15.53,25.91,12,46.75,11.51,50.29-5.34,26.83-22.59,58.26-64.43,89.87C620.93,317,334.13,417.45,330.24,505.9c0,0,24.47-39.71,92.59-75.24,60.11-31.41,187-88.51,245.28-122.36,87.38-50.69,101.73-102.58,101.73-102.58S791.42,148.63,750.74,109.88Z"/><path class="cls-19" d="M488.85,1003.42S386,920.23,338,853.55c-55.46-77.12-44.66-155.79-44.66-155.79S304.07,754,364.42,828.68,478.36,947.66,488.85,1003.42Z"/><path class="cls-20" d="M488.85,1003.42S386,920.23,338,853.55c-55.46-77.12-44.66-155.79-44.66-155.79s.93,63.5,45.67,124.18C383.6,882.61,482.32,980.5,488.85,1003.42Z"/><path class="cls-21" d="M675.41,824c-15.3.94-23,0-26.72,0s-11.41.94-26.71,0c-14.37-.88-21.52-5.39-22.37-5.93a95.35,95.35,0,0,0,22.91,19.08c12.27,7.41,21.59,4.78,26.17,5,4.59-.2,13.91,2.43,26.18-5A95.35,95.35,0,0,0,697.78,818C696.93,818.57,689.78,823.08,675.41,824Z"/><path class="cls-22" d="M791.3,633a56.31,56.31,0,0,1-13.13,15.78c-51,14.31-78.52-9.24-82.64-14.57a4.64,4.64,0,0,1-.7-1.07c-.08,0,0-.07,0-.07,1.71,1.48,16.55,13.35,51.73,12.81C759.45,645.71,774,641.47,791.3,633Z"/></svg>